<svg xmlns="http://www.w3.org/2000/svg" xmlns:xlink="http://www.w3.org/1999/xlink" width="570" zoomAndPan="magnify" viewBox="0 0 427.5 989.999975" height="1320" preserveAspectRatio="xMidYMid meet" version="1.0"><defs><g/><clipPath id="41d946a55c"><path d="M 0 0.578125 L 427 0.578125 L 427 989.421875 L 0 989.421875 Z M 0 0.578125 " clip-rule="nonzero"/></clipPath></defs><g clip-path="url(#41d946a55c)"><path fill="#000000" d="M -65.921875 914.585938 L -65.921875 75.421875 C -65.921875 -1.773438 -3.34375 -64.351562 73.851562 -64.351562 L 353.402344 -64.351562 C 430.597656 -64.351562 493.175781 -1.773438 493.175781 75.421875 L 493.175781 914.585938 C 493.175781 991.78125 430.597656 1054.359375 353.402344 1054.359375 L 73.851562 1054.359375 C -3.34375 1054.359375 -65.921875 991.78125 -65.921875 914.585938 Z M -65.921875 914.585938 " fill-opacity="1" fill-rule="nonzero"/></g><g fill="#ffffff" fill-opacity="1"><g transform="translate(14.103533, 452.800684)"><g><path d="M 222.53125 -186.984375 L 312.03125 -186.984375 C 322.15625 -198.171875 329.8125 -206.226562 335 -211.15625 C 340.195312 -216.082031 344.128906 -218.546875 346.796875 -218.546875 C 349.453125 -218.546875 353.046875 -217.144531 357.578125 -214.34375 C 362.109375 -211.550781 366.703125 -208.15625 371.359375 -204.15625 C 376.023438 -200.164062 379.953125 -196.238281 383.140625 -192.375 C 386.335938 -188.507812 387.9375 -185.378906 387.9375 -182.984375 C 387.9375 -179.253906 385.007812 -177.390625 379.15625 -177.390625 L 167.40625 -177.390625 C 173.800781 -175.796875 178.195312 -174.195312 180.59375 -172.59375 C 182.988281 -171 184.1875 -169.132812 184.1875 -167 C 184.1875 -165.132812 183.316406 -163.671875 181.578125 -162.609375 C 179.847656 -161.546875 176.320312 -160.347656 171 -159.015625 C 168.601562 -155.816406 166.269531 -152.75 164 -149.8125 C 161.738281 -146.882812 159.144531 -143.5625 156.21875 -139.84375 L 161.8125 -136.640625 L 272.078125 -136.640625 C 278.734375 -145.160156 283.257812 -150.550781 285.65625 -152.8125 C 288.0625 -155.082031 290.328125 -156.21875 292.453125 -156.21875 C 295.117188 -156.21875 299.179688 -154.816406 304.640625 -152.015625 C 310.097656 -149.222656 316.820312 -144.765625 324.8125 -138.640625 C 330.144531 -134.640625 333.804688 -131.175781 335.796875 -128.25 C 337.796875 -125.320312 338.796875 -122.789062 338.796875 -120.65625 C 338.796875 -118.53125 338.0625 -116.46875 336.59375 -114.46875 C 335.132812 -112.46875 332.273438 -110.003906 328.015625 -107.078125 C 328.546875 -90.296875 329.007812 -76.644531 329.40625 -66.125 C 329.8125 -55.601562 330.144531 -46.28125 330.40625 -38.15625 C 330.675781 -30.03125 331.078125 -21.039062 331.609375 -11.1875 C 332.140625 -4.789062 332.40625 0 332.40625 3.1875 C 332.40625 6.382812 332.40625 9.050781 332.40625 11.1875 C 332.40625 18.375 328.410156 23.566406 320.421875 26.765625 C 316.429688 28.367188 311.171875 29.632812 304.640625 30.5625 C 298.117188 31.5 292.59375 31.96875 288.0625 31.96875 C 278.738281 31.96875 274.078125 28.238281 274.078125 20.78125 L 274.078125 9.59375 L 154.21875 9.59375 L 154.21875 14.390625 C 154.21875 17.316406 153.75 19.507812 152.8125 20.96875 C 151.882812 22.4375 150.085938 23.835938 147.421875 25.171875 C 144.765625 26.765625 141.238281 27.960938 136.84375 28.765625 C 132.445312 29.566406 127.851562 29.96875 123.0625 29.96875 C 116.132812 29.96875 111.335938 29.035156 108.671875 27.171875 C 106.003906 25.304688 104.671875 22.242188 104.671875 17.984375 C 104.671875 16.378906 104.867188 11.378906 105.265625 2.984375 C 105.671875 -5.398438 106.007812 -15.316406 106.28125 -26.765625 C 106.539062 -30.492188 106.800781 -35.820312 107.0625 -42.75 C 107.332031 -49.675781 107.597656 -57.066406 107.859375 -64.921875 C 108.128906 -72.773438 108.265625 -79.5 108.265625 -85.09375 C 102.410156 -79.5 95.6875 -73.835938 88.09375 -68.109375 C 80.5 -62.390625 73.109375 -57.265625 65.921875 -52.734375 C 60.066406 -49.003906 53.875 -45.40625 47.34375 -41.9375 C 40.820312 -38.476562 34.894531 -35.550781 29.5625 -33.15625 C 26.363281 -31.820312 23.5 -30.6875 20.96875 -29.75 C 18.445312 -28.820312 16.519531 -28.359375 15.1875 -28.359375 C 13.320312 -28.359375 12.390625 -29.023438 12.390625 -30.359375 C 12.390625 -31.429688 13.320312 -32.5 15.1875 -33.5625 C 23.175781 -38.625 30.832031 -44.75 38.15625 -51.9375 C 45.476562 -59.125 52.601562 -66.847656 59.53125 -75.109375 C 72.050781 -89.765625 83.503906 -105.8125 93.890625 -123.25 C 104.273438 -140.695312 112.265625 -158.742188 117.859375 -177.390625 L 49.9375 -177.390625 C 40.613281 -177.390625 31.289062 -176.988281 21.96875 -176.1875 C 18.507812 -180.1875 16.378906 -182.71875 15.578125 -183.78125 C 14.785156 -184.84375 14.390625 -185.507812 14.390625 -185.78125 C 14.390625 -187.644531 15.453125 -188.578125 17.578125 -188.578125 C 21.304688 -188.304688 25.429688 -187.972656 29.953125 -187.578125 C 34.484375 -187.179688 37.953125 -186.984375 40.359375 -186.984375 L 168.203125 -186.984375 C 168.472656 -195.234375 168.671875 -202.15625 168.796875 -207.75 C 168.929688 -213.34375 169 -218.269531 169 -222.53125 L 97.09375 -222.53125 C 88.832031 -222.53125 80.707031 -222.132812 72.71875 -221.34375 C 69.78125 -225.070312 67.976562 -227.46875 67.3125 -228.53125 C 66.65625 -229.59375 66.328125 -230.257812 66.328125 -230.53125 C 66.328125 -232.394531 67.390625 -233.328125 69.515625 -233.328125 C 73.515625 -233.054688 77.773438 -232.722656 82.296875 -232.328125 C 86.828125 -231.929688 90.289062 -231.734375 92.6875 -231.734375 L 169 -231.734375 L 168.609375 -267.28125 L 55.53125 -267.28125 C 52.875 -267.28125 50.078125 -267.28125 47.140625 -267.28125 C 44.210938 -267.28125 41.285156 -267.015625 38.359375 -266.484375 C 35.160156 -270.210938 33.226562 -272.539062 32.5625 -273.46875 C 31.894531 -274.40625 31.5625 -275.007812 31.5625 -275.28125 C 31.5625 -277.144531 32.628906 -278.078125 34.765625 -278.078125 C 38.492188 -277.804688 42.617188 -277.535156 47.140625 -277.265625 C 51.671875 -277.003906 55.132812 -276.875 57.53125 -276.875 L 143.828125 -276.875 C 139.035156 -278.207031 135.773438 -280.269531 134.046875 -283.0625 C 132.316406 -285.863281 130.519531 -289.660156 128.65625 -294.453125 C 126.25 -301.109375 122.582031 -307.695312 117.65625 -314.21875 C 112.726562 -320.75 107.734375 -325.613281 102.671875 -328.8125 C 101.609375 -329.613281 101.078125 -330.546875 101.078125 -331.609375 C 101.078125 -332.671875 106.140625 -333.203125 116.265625 -333.203125 C 124.785156 -333.203125 132.84375 -332.601562 140.4375 -331.40625 C 148.03125 -330.207031 154.488281 -328.410156 159.8125 -326.015625 C 173.925781 -319.890625 180.984375 -311.234375 180.984375 -300.046875 C 180.984375 -287.265625 172.992188 -279.539062 157.015625 -276.875 L 218.140625 -276.875 C 219.742188 -287.257812 220.941406 -296.910156 221.734375 -305.828125 C 222.535156 -314.753906 223.203125 -324.148438 223.734375 -334.015625 C 224.003906 -335.878906 224.472656 -336.941406 225.140625 -337.203125 C 225.804688 -337.472656 226.671875 -337.609375 227.734375 -337.609375 C 232.796875 -337.609375 238.988281 -336.875 246.3125 -335.40625 C 253.632812 -333.9375 260.226562 -332.539062 266.09375 -331.21875 C 275.414062 -329.082031 282.003906 -326.945312 285.859375 -324.8125 C 289.722656 -322.6875 291.65625 -320.160156 291.65625 -317.234375 C 291.65625 -314.566406 290.390625 -312.363281 287.859375 -310.625 C 285.328125 -308.894531 281.53125 -307.367188 276.46875 -306.046875 C 271.675781 -302.046875 265.550781 -297.046875 258.09375 -291.046875 C 250.632812 -285.054688 244.507812 -280.332031 239.71875 -276.875 L 306.84375 -276.875 C 316.425781 -288.59375 323.414062 -296.515625 327.8125 -300.640625 C 332.207031 -304.773438 335.738281 -306.84375 338.40625 -306.84375 C 342.925781 -306.84375 351.316406 -302.046875 363.578125 -292.453125 C 373.429688 -284.460938 378.359375 -278.203125 378.359375 -273.671875 C 378.359375 -269.410156 374.097656 -267.28125 365.578125 -267.28125 L 232.921875 -267.28125 C 232.921875 -265.414062 232.585938 -264.082031 231.921875 -263.28125 C 231.253906 -262.488281 229.722656 -261.5625 227.328125 -260.5 C 224.398438 -259.425781 222.9375 -257.828125 222.9375 -255.703125 L 222.140625 -231.734375 L 270.484375 -231.734375 C 278.203125 -240.785156 283.992188 -247.507812 287.859375 -251.90625 C 291.722656 -256.300781 294.988281 -258.5 297.65625 -258.5 C 300.050781 -258.5 303.976562 -257.164062 309.4375 -254.5 C 314.894531 -251.832031 320.820312 -247.835938 327.21875 -242.515625 C 333.613281 -237.191406 336.8125 -232.53125 336.8125 -228.53125 C 336.8125 -224.53125 333.347656 -222.53125 326.421875 -222.53125 L 222.140625 -222.53125 Z M 274.484375 -39.15625 L 154.21875 -39.15625 L 154.21875 0.796875 L 274.484375 0.796875 Z M 274.484375 -47.546875 L 274.078125 -84.703125 L 154.625 -84.703125 L 154.21875 -47.546875 Z M 274.078125 -92.6875 L 274.078125 -112.671875 C 274.078125 -118.523438 273.941406 -122.582031 273.671875 -124.84375 C 273.410156 -127.113281 271.816406 -128.25 268.890625 -128.25 L 161.8125 -128.25 C 159.414062 -128.25 157.75 -127.382812 156.8125 -125.65625 C 155.882812 -123.925781 155.285156 -120.128906 155.015625 -114.265625 C 155.015625 -111.597656 154.945312 -108.535156 154.8125 -105.078125 C 154.6875 -101.617188 154.625 -97.488281 154.625 -92.6875 Z M 274.078125 -92.6875 "/></g></g></g><g fill="#ffffff" fill-opacity="1"><g transform="translate(14.103533, 851.539296)"><g><path d="M 129.046875 -234.53125 L 129.453125 -147.828125 C 133.972656 -148.890625 139.363281 -150.285156 145.625 -152.015625 C 151.882812 -153.753906 158.210938 -155.554688 164.609375 -157.421875 C 171.003906 -159.285156 176.460938 -160.878906 180.984375 -162.203125 C 184.453125 -163.273438 186.1875 -163.007812 186.1875 -161.40625 C 186.1875 -160.34375 185.382812 -159.144531 183.78125 -157.8125 C 182.71875 -156.75 181.320312 -155.679688 179.59375 -154.609375 C 177.863281 -153.546875 174.863281 -151.550781 170.59375 -148.625 C 167.132812 -146.226562 163.9375 -144.03125 161 -142.03125 C 158.070312 -140.03125 154.273438 -137.566406 149.609375 -134.640625 C 144.953125 -131.710938 138.234375 -127.453125 129.453125 -121.859375 C 129.453125 -111.472656 129.453125 -102.945312 129.453125 -96.28125 C 129.453125 -89.625 129.453125 -83.832031 129.453125 -78.90625 C 129.453125 -73.976562 129.515625 -68.984375 129.640625 -63.921875 C 129.773438 -58.859375 129.84375 -52.734375 129.84375 -45.546875 C 130.113281 -34.628906 130.25 -26.4375 130.25 -20.96875 C 130.25 -15.507812 130.25 -10.984375 130.25 -7.390625 C 130.25 -3.796875 130.25 0.929688 130.25 6.796875 L 130.25 11.59375 C 130.25 14.78125 130.046875 17.238281 129.640625 18.96875 C 129.242188 20.707031 127.984375 22.375 125.859375 23.96875 C 122.660156 26.363281 118.394531 28.492188 113.0625 30.359375 C 107.738281 32.222656 102.015625 33.15625 95.890625 33.15625 C 89.492188 33.15625 85.296875 32.289062 83.296875 30.5625 C 81.304688 28.832031 80.3125 25.570312 80.3125 20.78125 C 80.3125 18.914062 80.3125 17.113281 80.3125 15.375 C 80.3125 13.644531 80.441406 9.914062 80.703125 4.1875 C 80.972656 -1.53125 81.238281 -11.179688 81.5 -24.765625 C 82.03125 -41.546875 82.429688 -56.257812 82.703125 -68.90625 C 82.972656 -81.5625 83.238281 -91.222656 83.5 -97.890625 C 77.90625 -94.160156 72.378906 -90.695312 66.921875 -87.5 C 61.460938 -84.300781 55.671875 -80.835938 49.546875 -77.109375 C 46.078125 -74.179688 43.078125 -72.179688 40.546875 -71.109375 C 38.015625 -70.046875 35.6875 -69.515625 33.5625 -69.515625 C 30.894531 -69.515625 28.757812 -70.910156 27.15625 -73.703125 C 25.5625 -76.503906 23.96875 -81.503906 22.375 -88.703125 C 21.3125 -92.960938 19.976562 -98.488281 18.375 -105.28125 C 16.78125 -112.070312 15.050781 -119.59375 13.1875 -127.84375 C 24.375 -129.445312 35.492188 -131.113281 46.546875 -132.84375 C 57.597656 -134.570312 70.050781 -136.769531 83.90625 -139.4375 L 85.09375 -234.53125 L 65.515625 -234.53125 C 64.191406 -227.070312 62.195312 -218.347656 59.53125 -208.359375 C 56.863281 -198.367188 52.066406 -186.179688 45.140625 -171.796875 C 44.078125 -169.929688 42.410156 -167.066406 40.140625 -163.203125 C 37.878906 -159.347656 35.6875 -155.953125 33.5625 -153.015625 C 30.894531 -149.285156 28.226562 -146.019531 25.5625 -143.21875 C 22.90625 -140.425781 21.175781 -139.03125 20.375 -139.03125 C 19.570312 -139.03125 19.171875 -139.429688 19.171875 -140.234375 C 19.171875 -140.765625 19.441406 -142.363281 19.984375 -145.03125 C 22.910156 -160.75 24.972656 -176.597656 26.171875 -192.578125 C 27.367188 -208.554688 28.097656 -224.800781 28.359375 -241.3125 C 28.359375 -247.175781 28.289062 -253.898438 28.15625 -261.484375 C 28.03125 -269.078125 27.832031 -276.070312 27.5625 -282.46875 C 27.300781 -287.257812 27.101562 -291.320312 26.96875 -294.65625 C 26.832031 -297.988281 26.765625 -300.050781 26.765625 -300.84375 C 26.765625 -302.175781 26.832031 -302.972656 26.96875 -303.234375 C 27.101562 -303.503906 27.566406 -303.640625 28.359375 -303.640625 C 33.953125 -303.640625 44.609375 -301.773438 60.328125 -298.046875 C 67.515625 -296.453125 72.570312 -294.785156 75.5 -293.046875 C 78.4375 -291.316406 79.90625 -289.125 79.90625 -286.46875 C 79.90625 -283.800781 77.242188 -281.003906 71.921875 -278.078125 C 71.378906 -273.273438 70.773438 -267.878906 70.109375 -261.890625 C 69.453125 -255.898438 68.457031 -249.84375 67.125 -243.71875 L 85.09375 -243.71875 L 85.09375 -257.296875 C 85.09375 -261.296875 85.023438 -266.957031 84.890625 -274.28125 C 84.765625 -281.601562 84.632812 -289.257812 84.5 -297.25 C 84.363281 -305.238281 84.226562 -312.296875 84.09375 -318.421875 C 83.96875 -324.546875 83.90625 -328.539062 83.90625 -330.40625 L 83.90625 -333.203125 C 83.90625 -335.335938 84.703125 -336.40625 86.296875 -336.40625 C 87.097656 -336.40625 89.5625 -336.070312 93.6875 -335.40625 C 97.820312 -334.738281 106.945312 -333.207031 121.0625 -330.8125 C 135.4375 -328.414062 142.625 -324.15625 142.625 -318.03125 C 142.625 -316.164062 141.890625 -314.5 140.421875 -313.03125 C 138.960938 -311.5625 135.570312 -309.363281 130.25 -306.4375 C 129.976562 -297.113281 129.773438 -289.1875 129.640625 -282.65625 C 129.515625 -276.132812 129.453125 -269.941406 129.453125 -264.078125 C 129.453125 -258.222656 129.453125 -251.4375 129.453125 -243.71875 L 135.84375 -243.71875 C 138.769531 -249.039062 141.164062 -253.097656 143.03125 -255.890625 C 144.894531 -258.691406 145.960938 -260.359375 146.234375 -260.890625 C 147.828125 -263.816406 149.289062 -265.742188 150.625 -266.671875 C 151.957031 -267.609375 153.421875 -268.078125 155.015625 -268.078125 C 157.148438 -268.078125 160.082031 -266.210938 163.8125 -262.484375 C 167.539062 -258.765625 170.9375 -254.640625 174 -250.109375 C 177.0625 -245.578125 178.59375 -242.113281 178.59375 -239.71875 C 178.59375 -236.257812 175.925781 -234.53125 170.59375 -234.53125 Z M 225.734375 -246.109375 L 316.421875 -246.109375 C 316.960938 -246.640625 317.5625 -247.4375 318.21875 -248.5 C 318.882812 -249.570312 320.953125 -252.640625 324.421875 -257.703125 C 328.679688 -263.828125 332.941406 -266.890625 337.203125 -266.890625 C 340.929688 -266.890625 345.59375 -265.023438 351.1875 -261.296875 C 354.113281 -259.429688 357.90625 -256.695312 362.5625 -253.09375 C 367.226562 -249.5 371.03125 -246.375 373.96875 -243.71875 C 381.15625 -237.320312 384.75 -231.859375 384.75 -227.328125 C 384.75 -223.335938 380.222656 -219.34375 371.171875 -215.34375 L 371.171875 -191.375 C 371.171875 -154.082031 370.238281 -122.519531 368.375 -96.6875 C 366.507812 -70.851562 363.046875 -49.144531 357.984375 -31.5625 C 353.984375 -16.914062 348.785156 -5.195312 342.390625 3.59375 C 336.003906 12.382812 328.28125 19.175781 319.21875 23.96875 C 313.363281 26.894531 307.238281 28.890625 300.84375 29.953125 C 294.457031 31.023438 288.066406 31.5625 281.671875 31.5625 C 277.410156 31.5625 273.75 30.695312 270.6875 28.96875 C 267.625 27.238281 265.691406 24.640625 264.890625 21.171875 C 263.828125 16.648438 262.695312 12.722656 261.5 9.390625 C 260.300781 6.054688 258.101562 2.523438 254.90625 -1.203125 C 251.96875 -4.929688 249.035156 -8.0625 246.109375 -10.59375 C 243.179688 -13.125 239.984375 -15.71875 236.515625 -18.375 C 233.859375 -20.507812 232.53125 -22.109375 232.53125 -23.171875 C 232.53125 -24.503906 233.328125 -25.171875 234.921875 -25.171875 C 235.722656 -25.171875 238.519531 -24.769531 243.3125 -23.96875 C 248.644531 -23.164062 253.304688 -22.429688 257.296875 -21.765625 C 261.296875 -21.109375 265.425781 -20.78125 269.6875 -20.78125 C 278.476562 -20.78125 285.398438 -22.507812 290.453125 -25.96875 C 295.515625 -29.425781 299.910156 -35.285156 303.640625 -43.546875 C 308.972656 -54.472656 313.171875 -72.117188 316.234375 -96.484375 C 319.296875 -120.859375 321.222656 -151.820312 322.015625 -189.375 C 321.222656 -189.113281 320.289062 -188.847656 319.21875 -188.578125 C 317.351562 -180.859375 314.289062 -171.46875 310.03125 -160.40625 C 305.769531 -149.351562 300.707031 -137.632812 294.84375 -125.25 C 288.988281 -112.863281 282.53125 -100.8125 275.46875 -89.09375 C 268.414062 -77.375 261.023438 -66.988281 253.296875 -57.9375 C 241.046875 -43.28125 227.863281 -30.554688 213.75 -19.765625 C 199.632812 -8.984375 185.117188 0.265625 170.203125 7.984375 C 163.546875 11.453125 156.617188 14.515625 149.421875 17.171875 C 142.234375 19.835938 137.707031 21.171875 135.84375 21.171875 C 134.238281 21.171875 133.4375 20.640625 133.4375 19.578125 C 133.4375 18.773438 135.035156 17.3125 138.234375 15.1875 C 146.753906 9.0625 155.539062 1.867188 164.59375 -6.390625 C 173.65625 -14.648438 182.71875 -24.503906 191.78125 -35.953125 C 206.957031 -54.867188 219.804688 -74.046875 230.328125 -93.484375 C 240.847656 -112.929688 249.90625 -134.238281 257.5 -157.40625 C 265.09375 -180.582031 271.816406 -207.085938 277.671875 -236.921875 L 232.125 -236.921875 C 237.1875 -235.054688 241.914062 -233.257812 246.3125 -231.53125 C 250.707031 -229.800781 254.898438 -228.132812 258.890625 -226.53125 C 265.816406 -223.601562 269.28125 -220.273438 269.28125 -216.546875 C 269.28125 -214.953125 268.8125 -213.488281 267.875 -212.15625 C 266.945312 -210.820312 264.882812 -209.890625 261.6875 -209.359375 C 254.769531 -192.304688 247.910156 -177.117188 241.109375 -163.796875 C 234.316406 -150.484375 225.597656 -137.035156 214.953125 -123.453125 C 207.753906 -114.398438 198.628906 -104.878906 187.578125 -94.890625 C 176.523438 -84.898438 165.269531 -76.441406 153.8125 -69.515625 C 150.351562 -67.648438 147.359375 -65.984375 144.828125 -64.515625 C 142.296875 -63.054688 140.632812 -62.328125 139.84375 -62.328125 C 138.507812 -62.328125 137.84375 -62.992188 137.84375 -64.328125 C 137.84375 -65.117188 140.101562 -67.914062 144.625 -72.71875 C 149.6875 -78.039062 154.8125 -84.226562 160 -91.28125 C 165.195312 -98.34375 169.929688 -105.472656 174.203125 -112.671875 C 181.648438 -125.191406 187.972656 -137.375 193.171875 -149.21875 C 198.367188 -161.070312 202.960938 -173.859375 206.953125 -187.578125 C 210.953125 -201.296875 214.550781 -217.078125 217.75 -234.921875 C 210.820312 -224.804688 202.828125 -215.085938 193.765625 -205.765625 C 184.710938 -196.441406 175.988281 -188.316406 167.59375 -181.390625 C 159.207031 -174.460938 152.617188 -169.535156 147.828125 -166.609375 C 145.691406 -165.273438 144.09375 -164.609375 143.03125 -164.609375 C 141.695312 -164.609375 141.03125 -165.140625 141.03125 -166.203125 C 141.03125 -167.265625 141.5625 -168.332031 142.625 -169.40625 C 143.957031 -170.738281 145.15625 -172.132812 146.21875 -173.59375 C 147.289062 -175.0625 148.09375 -176.195312 148.625 -177 C 151.019531 -180.457031 153.21875 -183.785156 155.21875 -186.984375 C 157.21875 -190.179688 159.546875 -194.304688 162.203125 -199.359375 C 165.929688 -205.753906 169.660156 -213.144531 173.390625 -221.53125 C 177.117188 -229.925781 180.316406 -237.585938 182.984375 -244.515625 C 185.378906 -250.367188 187.84375 -257.425781 190.375 -265.6875 C 192.90625 -273.945312 195.367188 -282.46875 197.765625 -291.25 C 200.160156 -300.039062 202.359375 -308.363281 204.359375 -316.21875 C 206.359375 -324.082031 207.757812 -330.546875 208.5625 -335.609375 C 208.820312 -337.472656 209.617188 -338.40625 210.953125 -338.40625 C 212.015625 -338.40625 215.410156 -337.738281 221.140625 -336.40625 C 226.867188 -335.070312 233.191406 -333.539062 240.109375 -331.8125 C 247.035156 -330.082031 252.5 -328.550781 256.5 -327.21875 C 263.957031 -324.820312 269.015625 -322.625 271.671875 -320.625 C 274.335938 -318.625 275.671875 -316.160156 275.671875 -313.234375 C 275.671875 -311.097656 274.40625 -309.03125 271.875 -307.03125 C 269.34375 -305.039062 265.816406 -302.976562 261.296875 -300.84375 C 256.503906 -292.59375 250.707031 -283.335938 243.90625 -273.078125 C 237.113281 -262.828125 231.054688 -253.835938 225.734375 -246.109375 Z M 322.015625 -236.921875 L 285.265625 -236.921875 C 288.992188 -234.785156 292.320312 -232.921875 295.25 -231.328125 C 298.1875 -229.734375 300.582031 -228.269531 302.4375 -226.9375 C 306.96875 -224.269531 310.5 -222.132812 313.03125 -220.53125 C 315.5625 -218.9375 318.554688 -216.8125 322.015625 -214.15625 Z M 322.015625 -236.921875 "/></g></g></g></svg>